<?xml version="1.0" standalone="no"?><!DOCTYPE svg PUBLIC "-//W3C//DTD SVG 1.1//EN" "http://www.w3.org/Graphics/SVG/1.1/DTD/svg11.dtd">
<svg t="1761028645417" class="icon" viewBox="0 0 1024 1024" version="1.1" xmlns="http://www.w3.org/2000/svg" p-id="8017"
     width="200" height="200"><path d="M236.308 236.308c-27.57 0-51.2 19.692-63.016 43.323-3.938 19.692-110.277 456.861-110.277 464.738 0 19.693 11.816 39.385 35.447 43.323h271.753c23.631-3.938 47.262-23.63 55.139-47.261 3.938-7.877 110.277-452.923 110.277-460.8 0-19.693-11.816-39.385-35.446-47.262 3.938 0-256 0-263.877 3.939z" fill="#E4001B" p-id="8018"></path><path d="M472.615 236.308c-23.63 3.938-51.2 23.63-59.077 51.2C409.6 303.262 307.2 740.43 307.2 748.308c0 19.692 11.815 39.384 35.446 43.323H614.4c23.63-3.939 47.262-23.631 55.138-47.262 3.939-7.877 110.277-452.923 110.277-460.8 0-19.692-11.815-39.384-35.446-47.261 0-3.939-256-3.939-271.754 0z" fill="#00518A" p-id="8019"></path><path d="M724.677 236.308c-23.63 3.938-51.2 23.63-59.077 51.2-3.938 15.754-110.277 452.923-110.277 460.8 0 19.692 11.815 39.384 35.446 43.323h208.739c23.63-3.939 47.261-23.631 55.138-47.262 3.939-7.877 110.277-452.923 110.277-460.8 0-19.692-11.815-39.384-35.446-47.261-3.939 0-216.615-3.939-232.37 0h27.57c0-3.939 0 0 0 0z" fill="#088F8B" p-id="8020"></path><path d="M224.492 374.154v3.938C212.677 417.477 204.8 460.8 204.8 468.677c3.938 15.754 27.57 15.754 43.323-3.939 3.939-3.938 23.63-90.584 23.63-98.461H307.2v3.938s-3.938 19.693-11.815 47.262c-11.816 51.2-11.816 55.138-19.693 63.015-19.692 35.446-98.461 27.57-102.4 0 0-7.877 11.816-86.646 19.693-110.277h31.507z m484.431 0c19.692 3.938 27.57 19.692 15.754 47.261-7.877 23.631-27.57 39.385-66.954 39.385-11.815 0-7.877 0-15.754 35.446 0 7.877-3.938 11.816-3.938 11.816 0 3.938-35.446 3.938-35.446 0 27.569-122.093 27.569-129.97 27.569-129.97h78.77z m-287.508 47.261c3.939 0 7.877 3.939 7.877 7.877 0 11.816-23.63 19.693-35.446 11.816-7.877-7.877 7.877-19.693 27.57-19.693z m-86.646 11.816v3.938l3.939-3.938c15.754-7.877 27.569-3.939 35.446 3.938 3.938 3.939 3.938 7.877-3.939 43.323 0 3.939-3.938 11.816-3.938 15.754 0 7.877 0 7.877-15.754 7.877H334.77s0-7.877 3.939-15.754c7.877-35.446 7.877-39.384 0-39.384-3.939 0-7.877 3.938-7.877 3.938 0 3.939-7.877 43.323-7.877 47.262v3.938h-11.816c-15.753 0-15.753 0-11.815-11.815 3.939-19.693 7.877-35.446 7.877-47.262 3.938-11.815 0-11.815 11.815-11.815 3.939 0 11.816 0 11.816-3.939 0 0 3.938 0 3.938 3.939z m224.493-3.939v7.877l3.938-3.938c27.57-15.754 43.323-3.939 35.446 35.446 0 7.877-3.938 19.692-3.938 23.63s-3.939 11.816-3.939 11.816H563.2s0-7.877 3.938-15.754c7.877-35.446 7.877-39.384 0-39.384-3.938 0-7.876 0-7.876 3.938s-7.877 39.385-7.877 47.262v3.938h-11.816c-15.754 0-15.754 3.939-11.815-15.754 3.938-15.754 7.877-39.384 7.877-51.2s0-11.815 11.815-11.815c3.939 0 11.816 0 11.816-3.939-3.939 0 0 7.877 0 7.877z m283.569 0c0 27.57 3.938 39.385 3.938 39.385l7.877-15.754c11.816-19.692 11.816-19.692 19.692-19.692 3.939 0 7.877 0 11.816-3.939 7.877 0 7.877-3.938 0 15.754-15.754 27.57-39.385 66.954-47.262 78.77-23.63 43.322-23.63 43.322-47.261 43.322h-11.816V563.2s0-3.938 3.939-7.877v-3.938h3.938c3.939 0 3.939 0 7.877-7.877 0-3.939 3.939-3.939 3.939-7.877s3.938-7.877 7.877-15.754l7.877-11.815v-15.754c-3.939-19.693-3.939-43.323-7.877-51.2 0-7.877 0-7.877 7.877-7.877 3.938 0 7.876 0 11.815-3.939 3.938-3.938 15.754 0 15.754 0z m-350.523 0c39.384 7.877 23.63 66.954-15.754 78.77-27.57 3.938-47.262-3.939-47.262-23.631 0-35.446 23.631-59.077 63.016-55.139z m267.815 3.939l3.939 3.938c3.938 3.939 3.938 3.939 3.938 0l19.692-3.938c15.754-3.939 11.816-3.939 11.816 0-3.939 23.63-11.816 51.2-11.816 59.077-3.938 15.754 0 15.754-19.692 11.815h-15.754s0-3.938 0 0c-3.938 7.877-27.57 7.877-39.384-3.938-15.754-27.57 23.63-78.77 47.261-66.954z m-334.77 11.815v3.939c-3.938 15.753-7.876 47.261-11.815 51.2v7.877h-19.692c-15.754 0-15.754 0-11.815-7.877 3.938-11.816 7.877-23.631 7.877-39.385s0-7.877 11.815-11.815c3.939 0 11.815 0 11.815-3.939h11.816z m78.77 94.523s0 3.939-3.938 3.939c0 3.938-3.939 3.938-3.939 3.938h27.57l-3.94 15.754h-47.26c-3.94 3.938-35.447 11.815-35.447 7.877l3.939-15.754h3.938c7.877 0 7.877 0 11.816-11.815l3.938-7.877c39.385 3.938 43.323 3.938 43.323 3.938z m63.015 0v11.816s3.939 0 3.939-3.939c7.877-7.877 19.692-7.877 47.261-7.877h19.693s-15.754 51.2-15.754 55.139l-11.815 11.815h-55.139l-3.938 15.754c-7.877 27.57-7.877 27.57 3.938 23.63 11.815 0 7.877 0 7.877 7.878l-3.938 7.877h-11.816c-27.57 0-35.446 0-27.57-11.816 0-3.938 35.447-118.154 39.386-118.154-19.693 7.877 7.876 7.877 7.876 7.877z m126.031 0s0 7.877 0 0c-3.938 7.877-3.938 7.877 3.939 3.939s23.63-3.939 66.954-3.939h11.815v3.939c0 7.877 0 7.877 3.938 7.877h3.939l-3.939 7.877-3.938 7.876H768c-19.692 0-23.63 0-23.63-11.815v-3.938 7.877h-7.878s-23.63 74.83-23.63 86.646h3.938c3.938 0 3.938 0 3.938 3.938s0 3.939 3.939 3.939h7.877c3.938 0 3.938 0 15.754-19.693l3.938-7.877h-11.815c-15.754 0-11.816 0-11.816-7.877l3.939-7.876h27.57c3.938-7.877 3.938-11.816 3.938-11.816h-35.447l3.939-15.754h82.708s0 3.939-3.939 7.877v3.939h-23.63c-3.94 7.877-3.94 7.877-3.94 11.815h11.816c15.754 0 15.754 0 11.816 7.877l-3.939 7.877h-27.57l-3.938 7.877h11.816v11.815c0 11.816 0 11.816 7.877 11.816 3.938 0 3.938 0 0 7.877l-3.939 11.815h-7.877c-15.753 0-15.753-3.939-19.692-15.754v-7.877l-3.938 7.877c-15.754 19.692-15.754 19.692-39.385 19.692-11.815 0-11.815 0-11.815-3.938h-3.939c-3.938 0-3.938 0-3.938 3.938v3.939h-23.631c0-3.939 3.938-3.939-23.63-3.939h-23.632l3.939-7.877 3.938-7.876c3.939 0 3.939 0 3.939-3.939 19.692-70.892 27.569-98.461 27.569-102.4v-3.938h11.815c7.877-11.816 15.754-11.816 15.754-11.816z m-169.354 43.323l-3.938 15.754h-27.57c-3.938 7.877-3.938 11.816-3.938 11.816H512v3.938s0 3.938-3.938 7.877v7.877h-27.57l-7.877 11.815c-3.938 15.754-3.938 15.754 11.816 11.816 7.877 0 7.877 0 3.938 7.877l-3.938 7.876h-15.754c-27.57 0-35.446 0-23.63-27.569 3.938-7.877 3.938-15.754 3.938-15.754H433.23c3.938-11.815 3.938-15.753 3.938-15.753h15.754l3.939-11.816h-15.754s3.938-11.815 3.938-15.754c7.877-3.938 78.77-3.938 78.77 0z m94.523 35.446v3.939c-3.938 11.815-7.876 15.754-19.692 15.754h-7.877v11.815h15.754l-3.938 15.754h-35.447c-3.938 0-3.938 0-3.938-27.57V614.4h23.63v7.877h3.94c3.938 0 3.938 0 7.876-7.877v-3.938h7.877c7.877 7.876 11.815 7.876 11.815 7.876z m39.385-204.8l-3.938 19.693h7.877c39.384 0 51.2-43.323 15.753-43.323H665.6c-3.938 3.938-3.938 3.938-7.877 23.63z m-189.046 35.447c-7.877 3.938-15.754 39.384-7.877 43.323 3.938 3.938 11.815-3.939 15.754-11.816 7.877-27.569 7.877-35.446-7.877-31.507z m283.57 0c-7.878 3.938-15.755 39.384-7.878 43.323s19.693-11.816 19.693-35.446c0-7.877-3.939-11.816-11.816-7.877zM563.2 563.2l-3.938 7.877c0 3.938-3.939 7.877-3.939 7.877s3.939 0 3.939-3.939c7.876-3.938 11.815-3.938 23.63-3.938h11.816c0-3.939 3.938-7.877 3.938-7.877 3.939-3.938-35.446-3.938-35.446 0z m-7.877 23.63v7.878h43.323l3.939-7.877h-47.262z m129.97-15.753c0 3.938-3.94 11.815-3.94 11.815h3.94c3.938 0 7.876-3.938 11.815-3.938h3.938s3.939-11.816 3.939-15.754H689.23l-3.939 7.877z m-7.878 23.63s0 3.94-3.938 11.816c0 3.939-3.939 11.815-3.939 11.815h3.939c3.938 0 7.877-3.938 11.815-3.938s7.877 0 7.877-3.938c0 0 0-3.939 3.939-7.877v-3.939h-7.877c-7.877-3.938-11.816-3.938-11.816-3.938z m-19.692 55.14h19.692c3.939-11.816 3.939-15.755 3.939-19.693h-19.692l-3.939 19.692z" fill="#FFFFFF" p-id="8021"></path></svg>
