<?xml version="1.0" standalone="no"?><!DOCTYPE svg PUBLIC "-//W3C//DTD SVG 1.1//EN" "http://www.w3.org/Graphics/SVG/1.1/DTD/svg11.dtd"><svg t="1759909660066" class="icon" viewBox="0 0 1509 1024" version="1.1" xmlns="http://www.w3.org/2000/svg" p-id="4907" xmlns:xlink="http://www.w3.org/1999/xlink" width="294.7265625" height="200"><path d="M211.141497 325.836755l35.117003-75.318821 169.524097 79.064332-35.094303 75.29612zM916.546064 404.832986l-35.094303-75.296121 169.524097-79.041631 35.094303 75.29612zM773.195144 850.117491l-129.84438-122.126358a51.07515 51.07515 0 0 0-71.959211 2.270006l-116.905343 124.169364 60.609178 56.977167 94.659277-100.788295 106.463312 99.880292zM1067.615007 135.519397l100.107293-8.626025a28.602084 28.602084 0 0 0 26.105076-31.099091L1185.428352 0l-45.400133 4.086012 6.81002 77.634227-81.94724 7.264022zM1259.203568 11.577034l-31.780093 95.340279a28.602084 28.602084 0 0 0 17.933052 36.320107l90.800266 30.645089 14.755044-45.400133-73.775217-24.743072 26.105077-78.088229zM1269.191597 247.203724l-53.572157-85.125249a28.602084 28.602084 0 0 0-39.498115-9.761029L1094.628086 204.300599l25.197074 38.817113 65.603192-40.633119 45.400133 69.689204zM194.343448 1023.318998A755.458213 755.458213 0 0 1 85.61013 168.207493l40.406118 21.111062a709.604079 709.604079 0 0 0 101.923299 802.901352zM1314.137729 1024l-33.596099-30.64509a710.285081 710.285081 0 0 0 102.604301-804.036355l40.179118-21.111062a755.912215 755.912215 0 0 1-109.18732 855.792507z" fill="#4D4D4D" p-id="4908"></path></svg>